HIERARCHY
ROOT joint_Root
{
	OFFSET 0.0 0.0 0.0
	CHANNELS 6 Xposition Yposition Zposition Zrotation Xrotation Yrotation 
	JOINT Hips
	{
		OFFSET -0.726466 93.3139 -2.00062
		CHANNELS 6 Xposition Yposition Zposition Zrotation Xrotation Yrotation 
		JOINT Spine
		{
			OFFSET 15.7357 0.0 0.0
			CHANNELS 6 Xposition Yposition Zposition Zrotation Xrotation Yrotation 
			JOINT Chest
			{
				OFFSET 8.98455 -0.406207 0.0
				CHANNELS 6 Xposition Yposition Zposition Zrotation Xrotation Yrotation 
				JOINT Neck
				{
					OFFSET 16.3773 0.0 0.0
					CHANNELS 6 Xposition Yposition Zposition Zrotation Xrotation Yrotation 
					JOINT Head
					{
						OFFSET 6.45672 0.0 0.0
						CHANNELS 6 Xposition Yposition Zposition Zrotation Xrotation Yrotation 
						End Site
						{
							OFFSET 0.0 0.0 0.0
						}
					}
				}
				JOINT Shoulder_L
				{
					OFFSET 12.9942 -0.242716 4.98039
					CHANNELS 6 Xposition Yposition Zposition Zrotation Xrotation Yrotation 
					JOINT UpperArm_L
					{
						OFFSET 5.34809 0.0 0.0
						CHANNELS 6 Xposition Yposition Zposition Zrotation Xrotation Yrotation 
						JOINT LowerArm_L
						{
							OFFSET 24.3286 1.87007e-05 0.0
							CHANNELS 6 Xposition Yposition Zposition Zrotation Xrotation Yrotation 
							JOINT Hand_L
							{
								OFFSET 22.2916 0.0 0.0
								CHANNELS 6 Xposition Yposition Zposition Zrotation Xrotation Yrotation 
								End Site
								{
									OFFSET 0.0 0.0 0.0
								}
							}
						}
					}
				}
				JOINT Shoulder_R
				{
					OFFSET 12.9945 -0.242716 -4.98039
					CHANNELS 6 Xposition Yposition Zposition Zrotation Xrotation Yrotation 
					JOINT UpperArm_R
					{
						OFFSET -5.34813 0.0 0.0
						CHANNELS 6 Xposition Yposition Zposition Zrotation Xrotation Yrotation 
						JOINT LowerArm_R
						{
							OFFSET -24.3289 0.000322201 0.0
							CHANNELS 6 Xposition Yposition Zposition Zrotation Xrotation Yrotation 
							JOINT Hand_R
							{
								OFFSET -22.2915 -0.000108084 0.0
								CHANNELS 6 Xposition Yposition Zposition Zrotation Xrotation Yrotation 
								End Site
								{
									OFFSET 0.0 0.0 0.0
								}
							}
						}
					}
				}
			}
		}
		JOINT UpperLeg_L
		{
			OFFSET -2.19248 -6.46944 0.0
			CHANNELS 6 Xposition Yposition Zposition Zrotation Xrotation Yrotation 
			JOINT LowerLeg_L
			{
				OFFSET 39.0811 0.0 -1.23785e-05
				CHANNELS 6 Xposition Yposition Zposition Zrotation Xrotation Yrotation 
				JOINT Foot_L
				{
					OFFSET 40.9854 0.0 -1.26872e-05
					CHANNELS 6 Xposition Yposition Zposition Zrotation Xrotation Yrotation 
					JOINT Toes_L
					{
						OFFSET 11.7543 0.0 0.0
						CHANNELS 6 Xposition Yposition Zposition Zrotation Xrotation Yrotation 
						End Site
						{
							OFFSET 0.0 0.0 0.0
						}
					}
				}
			}
		}
		JOINT UpperLeg_R
		{
			OFFSET -2.19251 6.46944 0.0
			CHANNELS 6 Xposition Yposition Zposition Zrotation Xrotation Yrotation 
			JOINT LowerLeg_R
			{
				OFFSET -39.0811 -0.00228153 -0.0401928
				CHANNELS 6 Xposition Yposition Zposition Zrotation Xrotation Yrotation 
				JOINT Foot_R
				{
					OFFSET -40.9854 0.0 0.0
					CHANNELS 6 Xposition Yposition Zposition Zrotation Xrotation Yrotation 
					JOINT Toes_R
					{
						OFFSET -11.7543 0.0 0.0
						CHANNELS 6 Xposition Yposition Zposition Zrotation Xrotation Yrotation 
						End Site
						{
							OFFSET 0.0 0.0 0.0
						}
					}
				}
			}
		}
	}
}
MOTION
Frames:	8
Frame Time:	0.0333333
0.000000 0.000000 0.000000 0.000000 0.000000 -0.000000 94.858300 90.695400 184.749000 -85.034600 46.808400 -178.163000 15.735700 0.000005 -0.000001 109.074000 82.248100 -108.095000 8.984550 -0.406207 -0.000000 6.864460 5.041790 1.654420 16.377300 -0.000001 -0.000001 2.905560 8.580890 -1.620000 6.456720 -0.000001 -0.000000 2.887750 10.002600 -4.457000 12.994200 -0.242716 4.980390 -89.461400 -1.241310 -66.543100 5.348090 -0.000007 -0.000001 -70.765900 19.215100 -1.627270 24.328600 0.000019 0.000005 1.599880 5.869060 -15.277000 22.291600 -0.000001 0.000005 10.562000 5.418280 -3.541430 12.994500 -0.242716 -4.980390 88.760900 5.045300 -76.181900 -5.348130 -0.000001 -0.000004 -48.290700 14.251700 -32.386200 -24.328900 0.000322 -0.000009 1.853620 6.659310 -15.601600 -22.291500 -0.000108 -0.000004 14.812400 5.357280 -1.596080 -2.192480 -6.469440 -0.000000 176.526000 -15.304600 -22.756300 39.081100 -0.000007 -0.000012 -0.011173 0.012036 42.875100 40.985400 -0.000006 -0.000013 6.976700 -5.405150 -56.296800 11.754300 -0.000000 0.000003 -0.006895 -0.078773 -19.783500 -2.192510 6.469440 -0.000001 174.187000 24.381700 -175.619000 -39.081100 -0.002282 -0.040193 -0.017424 0.046003 24.265100 -40.985400 0.000008 0.000006 -0.994369 5.183260 -70.619200 -11.754300 -0.000006 -0.000006 -0.007313 -0.082329 -19.925000
0.000000 0.000000 0.000000 0.000000 0.000000 -0.000000 96.977200 90.332200 183.439000 -84.463600 45.582600 -179.619000 15.735700 0.000005 -0.000001 110.994000 82.525100 -109.964000 8.984550 -0.406207 -0.000000 6.164800 5.326790 1.773500 16.377300 -0.000001 -0.000001 2.701640 8.567100 -1.521790 6.456720 -0.000001 -0.000000 2.842340 9.771260 -4.632300 12.994200 -0.242716 4.980390 -89.299400 -1.592760 -66.253700 5.348090 -0.000007 -0.000001 -70.299000 16.645200 0.494725 24.328600 0.000019 0.000005 1.718530 6.481340 -14.885000 22.291600 -0.000001 0.000005 11.852700 5.411310 -3.312220 12.994500 -0.242716 -4.980390 88.823800 4.798340 -76.209000 -5.348130 -0.000001 -0.000004 -47.086900 12.524100 -33.764600 -24.328900 0.000322 -0.000009 2.055180 6.612030 -17.317400 -22.291500 -0.000108 -0.000004 15.822200 5.359770 -1.671810 -2.192480 -6.469440 -0.000000 174.198000 -17.845600 -22.417700 39.081100 -0.000007 -0.000012 -0.022137 0.038860 29.669600 40.985400 -0.000006 -0.000013 6.222020 -4.904650 -55.544200 11.754300 -0.000000 0.000003 -0.005671 -0.067824 -19.336900 -2.192510 6.469440 -0.000001 174.967000 24.729300 -174.669000 -39.081100 -0.002282 -0.040193 0.034611 -0.070288 24.002000 -40.985400 0.000008 0.000006 -0.487793 3.955700 -72.067300 -11.754300 -0.000006 -0.000006 -0.006733 -0.077352 -19.721800
0.000000 0.000000 0.000000 0.000000 0.000000 -0.000000 99.163600 89.739300 181.962000 -83.738900 44.410000 178.765000 15.735700 0.000005 -0.000001 113.300000 82.867000 -112.190000 8.984550 -0.406207 -0.000000 5.303110 5.606440 1.959680 16.377300 -0.000001 -0.000001 2.560450 8.448850 -1.403730 6.456720 -0.000001 -0.000000 2.738170 9.478800 -4.650740 12.994200 -0.242716 4.980390 -89.077100 -2.072520 -65.988600 5.348090 -0.000007 -0.000001 -70.269700 14.112600 2.028140 24.328600 0.000019 0.000005 1.816340 7.531020 -13.602400 22.291600 -0.000001 0.000005 13.166400 5.394540 -2.763220 12.994500 -0.242716 -4.980390 88.859800 4.602240 -76.069000 -5.348130 -0.000001 -0.000004 -46.601100 11.144300 -34.359400 -24.328900 0.000322 -0.000009 2.231750 6.400280 -19.278900 -22.291500 -0.000108 -0.000004 16.710100 5.366070 -1.865160 -2.192480 -6.469440 -0.000000 170.554000 -19.522900 -22.766500 39.081100 -0.000007 -0.000012 0.005160 -0.016841 17.034700 40.985400 -0.000006 -0.000013 15.234600 -5.684250 -52.607300 11.754300 -0.000000 0.000003 -0.005767 -0.068711 -19.373000 -2.192510 6.469440 -0.000001 175.624000 25.005000 -174.385000 -39.081100 -0.002282 -0.040193 0.028430 -0.053627 25.097700 -40.985400 0.000008 0.000006 -1.141780 3.384190 -73.208200 -11.754300 -0.000006 -0.000006 -0.006822 -0.078124 -19.753300
0.000000 0.000000 0.000000 0.000000 0.000000 -0.000000 101.519000 89.162800 180.156000 -82.996800 43.519200 177.504000 15.735700 0.000005 -0.000001 115.232000 83.072700 -114.053000 8.984550 -0.406207 -0.000000 4.727350 5.863750 2.113850 16.377300 -0.000001 -0.000001 2.238700 8.299970 -1.136840 6.456720 -0.000001 -0.000000 2.623580 9.236550 -4.752100 12.994200 -0.242716 4.980390 -88.943000 -2.369280 -65.948300 5.348090 -0.000007 -0.000001 -70.568600 11.679900 3.194060 24.328600 0.000019 0.000005 1.734050 8.420530 -11.682100 22.291600 -0.000001 0.000005 14.548400 5.373730 -2.106990 12.994500 -0.242716 -4.980390 88.860900 4.583480 -76.027500 -5.348130 -0.000001 -0.000004 -46.678100 10.141800 -34.392500 -24.328900 0.000322 -0.000009 2.189610 5.599560 -21.409100 -22.291500 -0.000108 -0.000004 17.138200 5.375090 -2.144600 -2.192480 -6.469440 -0.000000 169.608000 -18.733100 -22.671200 39.081100 -0.000007 -0.000012 -0.010472 0.067924 8.764060 40.985400 -0.000006 -0.000013 17.665600 -8.478890 -50.023100 11.754300 -0.000000 0.000003 -0.005615 -0.067306 -19.315800 -2.192510 6.469440 -0.000001 175.948000 24.958000 -174.028000 -39.081100 -0.002282 -0.040193 0.010512 -0.014204 26.892600 -40.985400 0.000008 0.000006 -1.959320 3.204200 -72.927200 -11.754300 -0.000006 -0.000006 -0.287618 -0.398076 -21.078700
0.000000 0.000000 0.000000 0.000000 0.000000 -0.000000 104.021000 88.651600 177.862000 -82.673500 42.819900 176.843000 15.735700 0.000005 -0.000001 116.613000 83.164000 -115.515000 8.984550 -0.406207 -0.000000 4.420350 6.081980 1.958530 16.377300 -0.000001 -0.000001 1.836650 8.140670 -0.796205 6.456720 -0.000001 -0.000000 2.300760 8.984450 -4.631950 12.994200 -0.242716 4.980390 -88.902900 -2.476050 -66.093300 5.348090 -0.000007 -0.000001 -71.158600 9.703070 3.918270 24.328600 0.000019 0.000005 1.535710 9.185530 -9.534860 22.291600 -0.000001 0.000005 15.663800 5.342840 -1.166060 12.994500 -0.242716 -4.980390 88.813700 4.765180 -76.003100 -5.348130 -0.000001 -0.000004 -47.129300 9.868880 -33.754500 -24.328900 0.000322 -0.000009 2.024800 4.605830 -23.776400 -22.291500 -0.000108 -0.000004 17.345400 5.383790 -2.417670 -2.192480 -6.469440 -0.000000 169.969000 -17.061300 -25.361600 39.081100 -0.000007 -0.000012 0.059130 -0.271026 12.307600 40.985400 -0.000006 -0.000013 18.026600 -10.878200 -48.628100 11.754300 -0.000000 0.000003 -0.005972 -0.070587 -19.449500 -2.192510 6.469440 -0.000001 175.660000 24.293900 -173.506000 -39.081100 -0.002282 -0.040193 -0.028611 0.057426 29.063900 -40.985400 0.000008 0.000006 -2.774500 3.174570 -70.692600 -11.754300 -0.000006 -0.000006 -2.233230 -2.328800 -25.458600
0.000000 0.000000 0.000000 0.000000 0.000000 -0.000000 106.695000 88.313100 174.986000 -83.563500 42.199500 177.323000 15.735700 0.000005 -0.000001 116.774000 83.207800 -116.137000 8.984550 -0.406207 -0.000000 4.348560 6.090270 1.040440 16.377300 -0.000001 -0.000001 1.582300 7.970720 -0.430624 6.456720 -0.000001 -0.000000 1.776010 8.716800 -4.178280 12.994200 -0.242716 4.980390 -88.966900 -2.350690 -66.266000 5.348090 -0.000007 -0.000001 -71.760900 8.610680 4.171760 24.328600 0.000019 0.000005 1.240070 9.357370 -7.583410 22.291600 -0.000001 0.000005 15.748900 5.315590 -0.365409 12.994500 -0.242716 -4.980390 88.663600 5.364150 -75.988800 -5.348130 -0.000001 -0.000004 -47.977500 10.437100 -32.389600 -24.328900 0.000322 -0.000009 1.967230 4.017380 -26.131300 -22.291500 -0.000108 -0.000004 17.453600 5.394980 -2.775060 -2.192480 -6.469440 -0.000000 170.929000 -14.007800 -27.684300 39.081100 -0.000007 -0.000012 0.132379 -0.348858 20.780100 40.985400 -0.000006 -0.000013 15.705400 -11.194800 -46.632000 11.754300 -0.000000 0.000003 -0.007776 -0.086203 -20.086800 -2.192510 6.469440 -0.000001 174.261000 22.943200 -172.862000 -39.081100 -0.002282 -0.040193 -0.048227 0.082297 32.049800 -40.985400 0.000008 0.000006 -3.759600 3.018110 -67.963500 -11.754300 -0.000006 -0.000006 -1.073350 -1.129660 -27.925200
0.000000 0.000000 0.000000 0.000000 0.000000 -0.000000 109.454000 88.224900 171.570000 -84.677900 41.224200 178.661000 15.735700 0.000005 -0.000001 115.152000 83.155600 -115.039000 8.984550 -0.406207 -0.000000 4.638270 5.804500 -0.008140 16.377300 -0.000001 -0.000001 1.313870 7.805610 -0.305628 6.456720 -0.000001 -0.000000 1.545640 8.434120 -3.643370 12.994200 -0.242716 4.980390 -89.123200 -1.988020 -66.194300 5.348090 -0.000007 -0.000001 -72.314800 8.988960 3.824660 24.328600 0.000019 0.000005 1.017930 9.139980 -6.382080 22.291600 -0.000001 0.000005 13.673400 5.288340 0.399684 12.994500 -0.242716 -4.980390 88.504600 5.954160 -75.874100 -5.348130 -0.000001 -0.000004 -49.813300 11.845900 -30.088300 -24.328900 0.000322 -0.000009 1.947040 3.644940 -28.149500 -22.291500 -0.000108 -0.000004 17.537200 5.410710 -3.288210 -2.192480 -6.469440 -0.000000 171.676000 -10.335100 -27.571600 39.081100 -0.000007 -0.000012 0.086531 -0.162205 28.078400 40.985400 -0.000006 -0.000013 13.215500 -15.216300 -50.794600 11.754300 -0.000000 0.000003 -0.005229 -0.063675 -19.167700 -2.192510 6.469440 -0.000001 172.765000 20.735800 -172.372000 -39.081100 -0.002282 -0.040193 -0.012801 0.021851 36.362500 -40.985400 0.000008 0.000006 -4.991380 1.725340 -63.387500 -11.754300 -0.000006 -0.000006 -0.096693 -0.436278 -34.765900
0.000000 0.000000 0.000000 0.000000 0.000000 -0.000000 112.076000 88.319500 167.980000 -84.811700 39.514400 179.795000 15.735700 0.000005 -0.000001 113.438000 83.064000 -113.430000 8.984550 -0.406207 -0.000000 4.979460 5.506520 -0.223937 16.377300 -0.000001 -0.000001 1.676540 7.428290 -0.556367 6.456720 -0.000001 -0.000000 1.602120 7.935500 -3.634140 12.994200 -0.242716 4.980390 -89.063700 -2.151730 -66.477600 5.348090 -0.000007 -0.000001 -74.032700 10.478000 2.984990 24.328600 0.000019 0.000005 1.136270 10.254100 -6.356920 22.291600 -0.000001 0.000005 10.312800 5.270010 0.897560 12.994500 -0.242716 -4.980390 88.599600 5.407330 -75.456500 -5.348130 -0.000001 -0.000004 -53.324700 13.885600 -26.843900 -24.328900 0.000322 -0.000009 1.705550 3.057950 -29.184800 -22.291500 -0.000108 -0.000004 17.361200 5.426750 -3.828870 -2.192480 -6.469440 -0.000000 172.145000 -9.130310 -25.538300 39.081100 -0.000007 -0.000012 -0.013597 0.021062 32.846900 40.985400 -0.000006 -0.000013 11.512600 -15.175400 -56.344900 11.754300 -0.000000 0.000003 -0.002980 -0.040377 -18.218800 -2.192510 6.469440 -0.000001 172.315000 18.977900 -173.505000 -39.081100 -0.002282 -0.040193 0.071709 -0.073847 42.823100 -40.985400 0.000008 0.000006 -4.237280 -0.094725 -54.694200 -11.754300 -0.000006 -0.000006 -0.189989 -0.628211 -43.426100
